<?xml version="1.0" encoding="UTF-8"?>
<svg version="1.1" xmlns="http://www.w3.org/2000/svg" width="128" height="128">
<path d="M0 0 C42.24 0 84.48 0 128 0 C128 42.24 128 84.48 128 128 C85.76 128 43.52 128 0 128 C0 85.76 0 43.52 0 0 Z " fill="#101417" transform="translate(0,0)"/>
<path d="M0 0 C10.56 0 21.12 0 32 0 C30.56151153 4.31546541 29.38873681 7.37260251 27.1796875 11.1796875 C26.64472656 12.1078125 26.10976562 13.0359375 25.55859375 13.9921875 C25.00300781 14.94351563 24.44742188 15.89484375 23.875 16.875 C23.31167969 17.84953125 22.74835938 18.8240625 22.16796875 19.828125 C20.78349637 22.22161962 19.39406459 24.6120838 18 27 C16.68 27 15.36 27 14 27 C11.8463472 23.25443921 9.70345274 19.50283234 7.5625 15.75 C6.95083984 14.68652344 6.33917969 13.62304688 5.70898438 12.52734375 C5.12568359 11.50253906 4.54238281 10.47773437 3.94140625 9.421875 C3.40201416 8.47924805 2.86262207 7.53662109 2.30688477 6.56542969 C1 4 1 4 0 0 Z " fill="#9E9FA1" transform="translate(48,76)"/>
<path d="M0 0 C10.69753587 0.72981394 21.34196822 1.84078429 32 3 C32 7.55184904 31.25501781 8.56780781 28.71875 12.203125 C28.04199219 13.1828125 27.36523438 14.1625 26.66796875 15.171875 C25.95253906 16.18765625 25.23710938 17.2034375 24.5 18.25 C23.78457031 19.28125 23.06914063 20.3125 22.33203125 21.375 C20.562895 23.92255621 18.78534878 26.46379177 17 29 C9.37222968 21.60816728 3.75048401 9.85386602 0 0 Z " fill="#9E9FA1" transform="translate(68,41)"/>
<path d="M0 0 C-1.42114154 3.82122393 -3.19189532 7.22622205 -5.2578125 10.73828125 C-6.19560547 12.33833008 -6.19560547 12.33833008 -7.15234375 13.97070312 C-7.80332031 15.07349609 -8.45429687 16.17628906 -9.125 17.3125 C-9.78371094 18.43462891 -10.44242188 19.55675781 -11.12109375 20.71289062 C-12.7443237 23.47708656 -14.37072154 26.23936632 -16 29 C-19.40728434 25.76774739 -22.06374745 22.63562331 -24.5 18.625 C-26.54612353 15.29556215 -28.62408078 12.10189454 -31 9 C-31.66 8.01 -32.32 7.02 -33 6 C-32.67 5.01 -32.34 4.02 -32 3 C-27.60467325 2.49547893 -23.20866362 1.99717184 -18.8125 1.5 C-17.56662109 1.35691406 -16.32074219 1.21382812 -15.03710938 1.06640625 C-13.83505859 0.93105469 -12.63300781 0.79570313 -11.39453125 0.65625 C-10.28956299 0.53056641 -9.18459473 0.40488281 -8.04614258 0.27539062 C-5.34054288 0.03078724 -2.71403915 -0.05299995 0 0 Z " fill="#9E9FA1" transform="translate(60,41)"/>
<path d="M0 0 C2.22664286 3.09963328 3.93594757 6.52062684 5.75 9.875 C6.52923828 11.26138672 6.52923828 11.26138672 7.32421875 12.67578125 C8.05318359 14.00802734 8.05318359 14.00802734 8.796875 15.3671875 C9.46734863 16.59091064 9.46734863 16.59091064 10.15136719 17.83935547 C11 20 11 20 10 23 C1.74893914 18.31854703 -6.16467051 13.34858485 -14 8 C-12.74539271 4.23617813 -11.47381388 3.74958162 -8.125 1.75 C-7.24070312 1.20859375 -6.35640625 0.6671875 -5.4453125 0.109375 C-3 -1 -3 -1 0 0 Z " fill="#F4F4F4" transform="translate(44,79)"/>
<path d="M0 0 C3.33811004 1.30043679 6.29798168 2.68344583 9.3125 4.625 C10.00988281 5.07101563 10.70726563 5.51703125 11.42578125 5.9765625 C12.20501953 6.48316406 12.20501953 6.48316406 13 7 C11.88748687 10.33753938 11.49873215 10.60457608 8.6484375 12.33984375 C7.96136719 12.76330078 7.27429688 13.18675781 6.56640625 13.62304688 C5.84324219 14.05681641 5.12007812 14.49058594 4.375 14.9375 C3.67503906 15.36740234 2.97507812 15.79730469 2.25390625 16.24023438 C-2.1166586 18.91203608 -6.54147399 21.4781828 -11 24 C-11 19.86401054 -10.54964594 18.70164508 -8.59375 15.234375 C-7.84931641 13.90019531 -7.84931641 13.90019531 -7.08984375 12.5390625 C-6.56519531 11.61867188 -6.04054688 10.69828125 -5.5 9.75 C-4.71302734 8.34621094 -4.71302734 8.34621094 -3.91015625 6.9140625 C-2.61426261 4.60501566 -1.31068601 2.30067226 0 0 Z " fill="#F5F5F5" transform="translate(85,78)"/>
<path d="M0 0 C4.53783023 0.57391955 8.14119516 1.77927495 12.2734375 3.72265625 C13.42714844 4.26083984 14.58085938 4.79902344 15.76953125 5.35351562 C16.95933594 5.91748047 18.14914063 6.48144531 19.375 7.0625 C20.59994401 7.63674313 21.82520177 8.21031749 23.05078125 8.78320312 C26.03700363 10.18226007 29.01986305 11.58803867 32 13 C32 13.33 32 13.66 32 14 C21.17146252 13.59339484 10.65021831 13.10201677 0 11 C0 7.37 0 3.74 0 0 Z " fill="#EFEFEF" transform="translate(66,25)"/>
<path d="M0 0 C0 3.63 0 7.26 0 11 C-3.83260652 11.50619331 -7.66592798 12.00513722 -11.5 12.5 C-12.57765625 12.64308594 -13.6553125 12.78617188 -14.765625 12.93359375 C-20.56477697 13.67616809 -26.15389099 14.17027502 -32 14 C-27.16896309 10.11679772 -21.60419744 7.87338032 -16 5.3125 C-14.3603125 4.54583008 -14.3603125 4.54583008 -12.6875 3.76367188 C-11.635625 3.28091797 -10.58375 2.79816406 -9.5 2.30078125 C-8.5409375 1.85903564 -7.581875 1.41729004 -6.59375 0.9621582 C-4 0 -4 0 0 0 Z " fill="#EFEFF0" transform="translate(62,25)"/>
<path d="M0 0 C0.66 0 1.32 0 2 0 C2 8.58 2 17.16 2 26 C-2.86569598 24.05372161 -5.86744637 22.07915761 -10 19 C-8.62223181 14.27827359 -6.59101512 10.27437928 -4 6.125 C-3.64421875 5.53203125 -3.2884375 4.9390625 -2.921875 4.328125 C-2.00730003 2.84705957 -1.00976463 1.41787784 0 0 Z " fill="#F5F5F5" transform="translate(99,55)"/>
<path d="M0 0 C0.66 0 1.32 0 2 0 C4.01779145 2.5670326 5.58864883 5.44304678 7.25 8.25 C7.7346875 9.02730469 8.219375 9.80460937 8.71875 10.60546875 C9.16734375 11.35957031 9.6159375 12.11367187 10.078125 12.890625 C10.49481445 13.58188477 10.91150391 14.27314453 11.34082031 14.98535156 C12 17 12 17 11.23730469 19.1640625 C9.74771119 21.37435119 8.2830682 22.39023144 6 23.75 C5.29875 24.17796875 4.5975 24.6059375 3.875 25.046875 C2 26 2 26 0 26 C0 17.42 0 8.84 0 0 Z " fill="#F2F3F3" transform="translate(27,55)"/>
<path d="M0 0 C1.09731445 0.00676758 1.09731445 0.00676758 2.21679688 0.01367188 C3.99873419 0.02531852 5.78062863 0.04324809 7.5625 0.0625 C7.5625 0.7225 7.5625 1.3825 7.5625 2.0625 C5.9125 2.3925 4.2625 2.7225 2.5625 3.0625 C2.5625 3.3925 2.5625 3.7225 2.5625 4.0625 C-4.61800184 4.77398265 -11.30778851 5.32068438 -18.4375 4.0625 C-17.4475 3.7325 -16.4575 3.4025 -15.4375 3.0625 C-15.4375 2.4025 -15.4375 1.7425 -15.4375 1.0625 C-10.23576905 0.19440561 -5.26771184 -0.06265348 0 0 Z " fill="#181C1F" transform="translate(91.4375,37.9375)"/>
<path d="M0 0 C4.95 0 9.9 0 15 0 C15 0.99 15 1.98 15 3 C16.32 3.66 17.64 4.32 19 5 C16.77027727 4.88534579 14.54121247 4.75785234 12.3125 4.625 C11.07113281 4.55539063 9.82976563 4.48578125 8.55078125 4.4140625 C5.30682228 4.03577906 2.93432815 3.38020024 0 2 C0 1.34 0 0.68 0 0 Z " fill="#212528" transform="translate(29,38)"/>
<path d="M0 0 C0.99 0.33 1.98 0.66 3 1 C3.33 1.99 3.66 2.98 4 4 C1.05446623 9.66448802 1.05446623 9.66448802 -2.75 10.875 C-3.4925 10.91625 -4.235 10.9575 -5 11 C-5 7.58678765 -4.33132534 6.60527115 -2.5 3.8125 C-2.0359375 3.09707031 -1.571875 2.38164063 -1.09375 1.64453125 C-0.7328125 1.10183594 -0.371875 0.55914062 0 0 Z " fill="#191D20" transform="translate(92,58)"/>
<path d="M0 0 C0.33 0.66 0.66 1.32 1 2 C-0.65 2.33 -2.3 2.66 -4 3 C-4 3.33 -4 3.66 -4 4 C-10.435 4.495 -10.435 4.495 -17 5 C-12.85963619 1.89472714 -11.20443602 1.45657668 -6.25 0.8125 C-5.07953125 0.65394531 -3.9090625 0.49539062 -2.703125 0.33203125 C-1.81109375 0.22246094 -0.9190625 0.11289062 0 0 Z " fill="#222528" transform="translate(98,38)"/>
</svg>
