<?xml version="1.0" encoding="UTF-8"?>
<svg xmlns="http://www.w3.org/2000/svg" xmlns:xlink="http://www.w3.org/1999/xlink" width="40px" height="40px" viewBox="0 0 40 40" version="1.1">
<g id="surface1">
<path style=" stroke:none;fill-rule:nonzero;fill:rgb(6.27451%,7.843137%,9.019608%);fill-opacity:1;" d="M 0 0 C 13.199219 0 26.398438 0 40 0 C 40 13.199219 40 26.398438 40 40 C 26.800781 40 13.601562 40 0 40 C 0 26.800781 0 13.601562 0 0 Z M 0 0 "/>
<path style=" stroke:none;fill-rule:nonzero;fill:rgb(61.960784%,62.352941%,63.137255%);fill-opacity:1;" d="M 15 23.75 C 18.300781 23.75 21.601562 23.75 25 23.75 C 24.550781 25.097656 24.183594 26.054688 23.492188 27.242188 C 23.328125 27.535156 23.160156 27.824219 22.988281 28.121094 C 22.8125 28.417969 22.640625 28.71875 22.460938 29.023438 C 22.285156 29.328125 22.109375 29.632812 21.925781 29.945312 C 21.496094 30.695312 21.0625 31.441406 20.625 32.1875 C 20.210938 32.1875 19.800781 32.1875 19.375 32.1875 C 18.703125 31.015625 18.03125 29.84375 17.363281 28.671875 C 17.171875 28.339844 16.980469 28.007812 16.785156 27.664062 C 16.601562 27.34375 16.417969 27.023438 16.230469 26.695312 C 16.0625 26.398438 15.894531 26.105469 15.722656 25.800781 C 15.3125 25 15.3125 25 15 23.75 Z M 15 23.75 "/>
<path style=" stroke:none;fill-rule:nonzero;fill:rgb(61.960784%,62.352941%,63.137255%);fill-opacity:1;" d="M 21.25 12.8125 C 24.59375 13.039062 27.917969 13.386719 31.25 13.75 C 31.25 15.171875 31.015625 15.488281 30.226562 16.625 C 30.011719 16.933594 29.800781 17.238281 29.582031 17.554688 C 29.359375 17.871094 29.136719 18.1875 28.90625 18.515625 C 28.683594 18.835938 28.460938 19.160156 28.230469 19.492188 C 27.675781 20.289062 27.121094 21.082031 26.5625 21.875 C 24.179688 19.566406 22.421875 15.890625 21.25 12.8125 Z M 21.25 12.8125 "/>
<path style=" stroke:none;fill-rule:nonzero;fill:rgb(61.960784%,62.352941%,63.137255%);fill-opacity:1;" d="M 18.75 12.8125 C 18.304688 14.007812 17.753906 15.070312 17.105469 16.167969 C 16.8125 16.667969 16.8125 16.667969 16.515625 17.179688 C 16.3125 17.523438 16.109375 17.867188 15.898438 18.222656 C 15.691406 18.574219 15.488281 18.925781 15.273438 19.285156 C 14.765625 20.148438 14.257812 21.011719 13.75 21.875 C 12.683594 20.863281 11.855469 19.886719 11.09375 18.632812 C 10.453125 17.59375 9.804688 16.59375 9.0625 15.625 C 8.855469 15.316406 8.648438 15.007812 8.4375 14.6875 C 8.539062 14.378906 8.644531 14.070312 8.75 13.75 C 10.125 13.59375 11.496094 13.4375 12.871094 13.28125 C 13.261719 13.238281 13.648438 13.191406 14.050781 13.144531 C 14.425781 13.101562 14.800781 13.0625 15.1875 13.015625 C 15.535156 12.976562 15.878906 12.9375 16.234375 12.898438 C 17.082031 12.820312 17.902344 12.796875 18.75 12.8125 Z M 18.75 12.8125 "/>
<path style=" stroke:none;fill-rule:nonzero;fill:rgb(95.686275%,95.686275%,95.686275%);fill-opacity:1;" d="M 13.75 24.6875 C 14.445312 25.65625 14.980469 26.726562 15.546875 27.773438 C 15.789062 28.207031 15.789062 28.207031 16.039062 28.648438 C 16.265625 29.066406 16.265625 29.066406 16.5 29.488281 C 16.707031 29.871094 16.707031 29.871094 16.921875 30.261719 C 17.1875 30.9375 17.1875 30.9375 16.875 31.875 C 14.296875 30.410156 11.824219 28.859375 9.375 27.1875 C 9.765625 26.011719 10.164062 25.859375 11.210938 25.234375 C 11.488281 25.066406 11.761719 24.894531 12.046875 24.722656 C 12.8125 24.375 12.8125 24.375 13.75 24.6875 Z M 13.75 24.6875 "/>
<path style=" stroke:none;fill-rule:nonzero;fill:rgb(96.078431%,96.078431%,96.078431%);fill-opacity:1;" d="M 26.5625 24.375 C 27.605469 24.78125 28.53125 25.214844 29.472656 25.820312 C 29.691406 25.960938 29.910156 26.097656 30.132812 26.242188 C 30.375 26.402344 30.375 26.402344 30.625 26.5625 C 30.277344 27.605469 30.15625 27.6875 29.265625 28.230469 C 29.050781 28.363281 28.835938 28.496094 28.613281 28.632812 C 28.386719 28.769531 28.164062 28.902344 27.929688 29.042969 C 27.710938 29.175781 27.492188 29.3125 27.265625 29.449219 C 25.902344 30.285156 24.519531 31.085938 23.125 31.875 C 23.125 30.582031 23.265625 30.21875 23.875 29.136719 C 24.109375 28.71875 24.109375 28.71875 24.347656 28.292969 C 24.511719 28.003906 24.675781 27.71875 24.84375 27.421875 C 25.089844 26.984375 25.089844 26.984375 25.339844 26.535156 C 25.746094 25.8125 26.152344 25.09375 26.5625 24.375 Z M 26.5625 24.375 "/>
<path style=" stroke:none;fill-rule:nonzero;fill:rgb(93.72549%,93.72549%,93.72549%);fill-opacity:1;" d="M 20.625 7.8125 C 22.042969 7.992188 23.167969 8.367188 24.460938 8.976562 C 24.820312 9.144531 25.179688 9.3125 25.554688 9.484375 C 25.925781 9.660156 26.296875 9.839844 26.679688 10.019531 C 27.0625 10.199219 27.445312 10.378906 27.828125 10.558594 C 28.761719 10.996094 29.695312 11.433594 30.625 11.875 C 30.625 11.976562 30.625 12.082031 30.625 12.1875 C 27.242188 12.058594 23.953125 11.90625 20.625 11.25 C 20.625 10.117188 20.625 8.980469 20.625 7.8125 Z M 20.625 7.8125 "/>
<path style=" stroke:none;fill-rule:nonzero;fill:rgb(93.72549%,93.72549%,94.117647%);fill-opacity:1;" d="M 19.375 7.8125 C 19.375 8.945312 19.375 10.082031 19.375 11.25 C 18.175781 11.40625 16.980469 11.5625 15.78125 11.71875 C 15.445312 11.761719 15.109375 11.808594 14.761719 11.855469 C 12.949219 12.085938 11.203125 12.242188 9.375 12.1875 C 10.882812 10.972656 12.625 10.273438 14.375 9.472656 C 14.886719 9.234375 14.886719 9.234375 15.410156 8.988281 C 15.738281 8.835938 16.066406 8.6875 16.40625 8.53125 C 16.707031 8.394531 17.003906 8.253906 17.3125 8.113281 C 18.125 7.8125 18.125 7.8125 19.375 7.8125 Z M 19.375 7.8125 "/>
<path style=" stroke:none;fill-rule:nonzero;fill:rgb(96.078431%,96.078431%,96.078431%);fill-opacity:1;" d="M 30.9375 17.1875 C 31.144531 17.1875 31.351562 17.1875 31.5625 17.1875 C 31.5625 19.867188 31.5625 22.550781 31.5625 25.3125 C 30.042969 24.703125 29.105469 24.085938 27.8125 23.125 C 28.242188 21.648438 28.878906 20.398438 29.6875 19.101562 C 29.796875 18.917969 29.910156 18.730469 30.023438 18.539062 C 30.308594 18.078125 30.621094 17.628906 30.9375 17.1875 Z M 30.9375 17.1875 "/>
<path style=" stroke:none;fill-rule:nonzero;fill:rgb(94.901961%,95.294118%,95.294118%);fill-opacity:1;" d="M 8.4375 17.1875 C 8.644531 17.1875 8.851562 17.1875 9.0625 17.1875 C 9.691406 17.988281 10.183594 18.886719 10.703125 19.765625 C 10.855469 20.007812 11.007812 20.25 11.164062 20.5 C 11.300781 20.738281 11.441406 20.972656 11.585938 21.214844 C 11.71875 21.433594 11.847656 21.648438 11.980469 21.871094 C 12.1875 22.5 12.1875 22.5 11.949219 23.175781 C 11.484375 23.867188 11.027344 24.183594 10.3125 24.609375 C 10.09375 24.742188 9.875 24.875 9.648438 25.015625 C 9.0625 25.3125 9.0625 25.3125 8.4375 25.3125 C 8.4375 22.632812 8.4375 19.949219 8.4375 17.1875 Z M 8.4375 17.1875 "/>
<path style=" stroke:none;fill-rule:nonzero;fill:rgb(9.411765%,10.980392%,12.156863%);fill-opacity:1;" d="M 28.574219 11.855469 C 28.917969 11.859375 28.917969 11.859375 29.265625 11.859375 C 29.824219 11.863281 30.378906 11.867188 30.9375 11.875 C 30.9375 12.082031 30.9375 12.289062 30.9375 12.5 C 30.421875 12.601562 29.90625 12.707031 29.375 12.8125 C 29.375 12.914062 29.375 13.019531 29.375 13.125 C 27.132812 13.347656 25.039062 13.519531 22.8125 13.125 C 23.121094 13.023438 23.429688 12.917969 23.75 12.8125 C 23.75 12.605469 23.75 12.398438 23.75 12.1875 C 25.375 11.917969 26.929688 11.835938 28.574219 11.855469 Z M 28.574219 11.855469 "/>
<path style=" stroke:none;fill-rule:nonzero;fill:rgb(12.941176%,14.509804%,15.686275%);fill-opacity:1;" d="M 9.0625 11.875 C 10.609375 11.875 12.15625 11.875 13.75 11.875 C 13.75 12.183594 13.75 12.492188 13.75 12.8125 C 14.164062 13.019531 14.574219 13.226562 15 13.4375 C 14.304688 13.402344 13.605469 13.363281 12.910156 13.320312 C 12.523438 13.296875 12.132812 13.277344 11.734375 13.253906 C 10.722656 13.136719 9.980469 12.929688 9.0625 12.5 C 9.0625 12.292969 9.0625 12.085938 9.0625 11.875 Z M 9.0625 11.875 "/>
<path style=" stroke:none;fill-rule:nonzero;fill:rgb(9.803922%,11.372549%,12.54902%);fill-opacity:1;" d="M 28.75 18.125 C 29.058594 18.226562 29.367188 18.332031 29.6875 18.4375 C 29.789062 18.746094 29.894531 19.054688 30 19.375 C 29.078125 21.144531 29.078125 21.144531 27.890625 21.523438 C 27.660156 21.535156 27.425781 21.550781 27.1875 21.5625 C 27.1875 20.496094 27.394531 20.1875 27.96875 19.316406 C 28.113281 19.09375 28.257812 18.871094 28.40625 18.640625 C 28.519531 18.46875 28.632812 18.300781 28.75 18.125 Z M 28.75 18.125 "/>
<path style=" stroke:none;fill-rule:nonzero;fill:rgb(13.333333%,14.509804%,15.686275%);fill-opacity:1;" d="M 30.625 11.875 C 30.726562 12.082031 30.832031 12.289062 30.9375 12.5 C 30.421875 12.601562 29.90625 12.707031 29.375 12.8125 C 29.375 12.914062 29.375 13.019531 29.375 13.125 C 27.363281 13.28125 27.363281 13.28125 25.3125 13.4375 C 26.605469 12.46875 27.125 12.332031 28.671875 12.128906 C 29.039062 12.078125 29.402344 12.03125 29.78125 11.980469 C 30.058594 11.945312 30.335938 11.910156 30.625 11.875 Z M 30.625 11.875 "/>
</g>
</svg>
