<svg width="280" height="78" viewBox="0 0 280 78" fill="none" xmlns="http://www.w3.org/2000/svg">
<path d="M92.1255 40.5851V11.6488L116.557 11.5676C119.777 11.5676 122.158 12.244 123.7 13.5968C125.269 14.9226 126.054 16.9247 126.054 19.6032C126.054 22.2818 125.161 24.2433 123.375 25.4879C124.566 26.1372 125.445 27.003 126.013 28.0853C126.581 29.1404 126.865 30.5068 126.865 32.1842C126.865 34.9169 126.081 37.0002 124.511 38.4341C122.969 39.841 120.588 40.5445 117.369 40.5445L92.1255 40.5851ZM115.786 16.7624H98.6189V23.2558H115.786C118.248 23.2558 119.479 22.1465 119.479 19.9279C119.479 17.8175 118.248 16.7624 115.786 16.7624ZM116.598 28.4505H98.6189V35.3498H116.598C119.06 35.3498 120.291 34.1864 120.291 31.8596C120.291 29.5869 119.06 28.4505 116.598 28.4505Z" fill="white"/>
<path d="M130.713 40.5851V19.6844H136.598V40.5851H130.713ZM130.673 16.2348V11.6488H136.639V16.2348H130.673Z" fill="white"/>
<path d="M151.934 40.5851C149.58 40.5851 147.849 40.0034 146.739 38.84C145.63 37.6495 145.075 36.0938 145.075 34.1728V24.3515H139.028V19.6844H145.075V13.2721H150.96V19.6844H159.645V24.3515H150.96V33.4423C150.96 35.0927 151.772 35.9179 153.395 35.9179H160.781V40.5851H151.934Z" fill="white"/>
<path d="M163.807 40.5851V19.6844H179.797C182.151 19.6844 183.882 20.2796 184.992 21.4701C186.101 22.6335 186.655 24.1757 186.655 26.0966V30.4391H180.69V26.8272C180.69 25.2038 179.878 24.3921 178.255 24.3921H169.773V40.5851H163.807Z" fill="white"/>
<path d="M201.392 40.788C197.766 40.788 194.939 39.8952 192.91 38.1095C190.881 36.2967 189.866 33.6452 189.866 30.155C189.866 26.6378 190.881 23.9863 192.91 22.2006C194.939 20.3879 197.766 19.4815 201.392 19.4815H208.9C212.525 19.4815 215.353 20.3879 217.382 22.2006C219.411 23.9863 220.426 26.6378 220.426 30.155C220.426 33.6452 219.411 36.2967 217.382 38.1095C215.353 39.8952 212.525 40.788 208.9 40.788H201.392ZM201.392 36.1209H208.9C210.658 36.1209 211.998 35.6339 212.918 34.6598C213.865 33.6858 214.338 32.1842 214.338 30.155C214.338 28.0988 213.865 26.5837 212.918 25.6096C211.998 24.6356 210.658 24.1486 208.9 24.1486H201.392C199.633 24.1486 198.28 24.6356 197.333 25.6096C196.414 26.5837 195.954 28.0988 195.954 30.155C195.954 32.1842 196.414 33.6858 197.333 34.6598C198.28 35.6339 199.633 36.1209 201.392 36.1209Z" fill="white"/>
<path d="M234.802 40.788C231.177 40.788 228.349 39.8952 226.32 38.1095C224.291 36.2967 223.276 33.6452 223.276 30.155C223.276 26.6378 224.291 23.9863 226.32 22.2006C228.349 20.3879 231.177 19.4815 234.802 19.4815H248.398V24.1486H234.802C233.044 24.1486 231.691 24.6356 230.744 25.6096C229.824 26.5837 229.364 28.0988 229.364 30.155C229.364 32.1842 229.824 33.6858 230.744 34.6598C231.691 35.6339 233.044 36.1209 234.802 36.1209H248.804V40.788H234.802Z" fill="white"/>
<path d="M251.831 40.5851V11.5676H257.716V19.6844H271.758C274.139 19.6844 275.951 20.2526 277.196 21.3889C278.467 22.4982 279.103 24.0945 279.103 26.1778C279.103 29.5869 277.48 31.6161 274.233 32.2654L279.184 40.5851H272.569L267.78 32.5089H257.716V40.5851H251.831ZM271.473 24.311H257.716V27.8823H271.473C272.015 27.8823 272.434 27.72 272.732 27.3953C273.056 27.0707 273.219 26.6242 273.219 26.0561C273.219 24.8927 272.637 24.311 271.473 24.311Z" fill="white"/>
<path d="M91.9897 66.1935V52.7971L103.727 52.7595C105.274 52.7595 106.418 53.0727 107.159 53.699C107.913 54.3127 108.29 55.2396 108.29 56.4797C108.29 57.7198 107.861 58.6279 107.003 59.2041C107.575 59.5047 107.997 59.9055 108.27 60.4066C108.543 60.8951 108.68 61.5276 108.68 62.3042C108.68 63.5694 108.303 64.5339 107.549 65.1977C106.808 65.8491 105.664 66.1747 104.117 66.1747L91.9897 66.1935ZM103.357 55.1645H95.1094V58.1707H103.357C104.54 58.1707 105.131 57.6571 105.131 56.63C105.131 55.653 104.54 55.1645 103.357 55.1645ZM103.747 60.5757H95.1094V63.7698H103.747C104.93 63.7698 105.521 63.2312 105.521 62.1539C105.521 61.1018 104.93 60.5757 103.747 60.5757Z" fill="white"/>
<path d="M110.529 66.1935V52.7595H113.356V66.1935H110.529Z" fill="white"/>
<path d="M120.646 66.2875C118.904 66.2875 117.545 65.8741 116.571 65.0474C115.596 64.2082 115.108 62.9806 115.108 61.3648C115.108 59.7364 115.596 58.5089 116.571 57.6822C117.545 56.843 118.904 56.4233 120.646 56.4233H124.253C125.994 56.4233 127.353 56.843 128.328 57.6822C129.303 58.5089 129.79 59.7364 129.79 61.3648C129.79 62.9806 129.303 64.2082 128.328 65.0474C127.353 65.8741 125.994 66.2875 124.253 66.2875H120.646ZM120.646 64.1268H124.253C125.098 64.1268 125.741 63.9013 126.183 63.4504C126.638 62.9994 126.865 62.3042 126.865 61.3648C126.865 60.4128 126.638 59.7114 126.183 59.2605C125.741 58.8095 125.098 58.5841 124.253 58.5841H120.646C119.801 58.5841 119.151 58.8095 118.696 59.2605C118.254 59.7114 118.033 60.4128 118.033 61.3648C118.033 62.3042 118.254 62.9994 118.696 63.4504C119.151 63.9013 119.801 64.1268 120.646 64.1268Z" fill="white"/>
<path d="M136.697 66.2875C134.955 66.2875 133.597 65.8741 132.622 65.0474C131.647 64.2082 131.16 62.9806 131.16 61.3648C131.16 59.7364 131.647 58.5089 132.622 57.6822C133.597 56.843 134.955 56.4233 136.697 56.4233H143.229V58.5841H136.697C135.852 58.5841 135.202 58.8095 134.747 59.2605C134.305 59.7114 134.084 60.4128 134.084 61.3648C134.084 62.3042 134.305 62.9994 134.747 63.4504C135.202 63.9013 135.852 64.1268 136.697 64.1268H143.424V66.2875H136.697Z" fill="white"/>
<path d="M144.878 66.1935V52.7595H147.705V56.5173H154.451C155.595 56.5173 156.466 56.7803 157.064 57.3064C157.675 57.82 157.98 58.559 157.98 59.5235C157.98 61.1018 157.2 62.0412 155.641 62.3418L158.019 66.1935H154.841L152.541 62.4546H147.705V66.1935H144.878ZM154.315 58.6592H147.705V60.3126H154.315C154.575 60.3126 154.776 60.2375 154.919 60.0872C155.075 59.9369 155.153 59.7302 155.153 59.4671C155.153 58.9285 154.874 58.6592 154.315 58.6592Z" fill="white"/>
<path d="M164.725 66.2875C162.983 66.2875 161.625 65.8741 160.65 65.0474C159.675 64.2082 159.187 62.9806 159.187 61.3648C159.187 59.7364 159.675 58.5089 160.65 57.6822C161.625 56.843 162.983 56.4233 164.725 56.4233H171.256V58.5841H164.725C163.88 58.5841 163.23 58.8095 162.775 59.2605C162.333 59.7114 162.112 60.4128 162.112 61.3648C162.112 62.3042 162.333 62.9994 162.775 63.4504C163.23 63.9013 163.88 64.1268 164.725 64.1268H171.451V66.2875H164.725Z" fill="white"/>
<path d="M172.906 66.1935V52.7595H175.733V56.5173H181.66C182.804 56.5173 183.636 56.7929 184.156 57.344C184.689 57.8826 184.955 58.5966 184.955 59.4859V66.1935H182.128V59.8053C182.128 59.0538 181.738 58.678 180.958 58.678H175.733V66.1935H172.906Z" fill="white"/>
<path d="M189.667 66.1935C188.614 66.1935 187.808 65.9367 187.249 65.4232C186.691 64.9096 186.411 64.1769 186.411 63.2249C186.411 62.2855 186.691 61.559 187.249 61.0454C187.808 60.5318 188.614 60.2751 189.667 60.2751H197.154V59.8241C197.154 59.06 196.764 58.678 195.984 58.678H187.717V56.5173H196.725C197.908 56.5173 198.747 56.7803 199.241 57.3064C199.734 57.82 199.981 58.5465 199.981 59.4859V66.1935H189.667ZM190.174 64.0328H197.154V62.4358H190.174C189.927 62.4358 189.732 62.5109 189.589 62.6612C189.459 62.799 189.394 62.9869 189.394 63.2249C189.394 63.4629 189.459 63.657 189.589 63.8074C189.732 63.9577 189.927 64.0328 190.174 64.0328Z" fill="white"/>
<path d="M202.133 66.1935V56.5173H204.96V66.1935H202.133ZM202.114 54.9202V52.7971H204.98V54.9202H202.114Z" fill="white"/>
<path d="M207.103 66.1935V56.5173H215.857C217.001 56.5173 217.833 56.7929 218.353 57.344C218.886 57.8826 219.153 58.5966 219.153 59.4859V66.1935H216.325V59.8053C216.325 59.0538 215.935 58.678 215.155 58.678H209.93V66.1935H207.103Z" fill="white"/>
<path d="M56.9746 45.3223L73.0713 21.5277C73.18 21.3536 73.2425 21.1546 73.2528 20.9496C73.2632 20.7446 73.2212 20.5404 73.1306 20.3562C73.0401 20.172 72.9041 20.0139 72.7354 19.897C72.5668 19.7801 72.3711 19.7082 72.1669 19.688L40.3957 16.3104L56.9746 45.3223Z" fill="url(#paint0_linear_40_22)"/>
<path d="M72.1069 30.0313L60.7428 48.6991L72.4385 55.6957C72.53 55.756 72.6362 55.7902 72.7458 55.7947C72.8553 55.7991 72.9639 55.7736 73.06 55.7209C73.1561 55.6681 73.236 55.5902 73.2912 55.4954C73.3463 55.4007 73.3746 55.2927 73.3729 55.183V30.3329C73.3927 30.2497 73.3959 30.1635 73.3824 30.0791C73.3689 29.9946 73.3389 29.9137 73.2941 29.8409C73.2493 29.7681 73.1906 29.7048 73.1214 29.6547C73.0522 29.6046 72.9738 29.5686 72.8906 29.5488C72.8075 29.529 72.7213 29.5258 72.6369 29.5393C72.5525 29.5528 72.4717 29.5828 72.3989 29.6277C72.3261 29.6725 72.2629 29.7312 72.2128 29.8004C72.1627 29.8697 72.1267 29.9481 72.1069 30.0313Z" fill="white"/>
<path d="M70.4788 13.5046L40.7875 0.114492C40.6019 0.0272598 40.3971 -0.011179 40.1925 0.00282001C39.9879 0.016819 39.7903 0.0827913 39.6183 0.194493C39.4463 0.306196 39.3056 0.459944 39.2096 0.641195C39.1135 0.822448 39.0652 1.02522 39.0693 1.23033V11.2428L70.1171 14.6506C70.2644 14.6834 70.4186 14.6598 70.5493 14.5844C70.68 14.5091 70.7777 14.3874 70.8231 14.2435C70.8685 14.0996 70.8584 13.9439 70.7946 13.8071C70.7309 13.6703 70.6182 13.5623 70.4788 13.5046Z" fill="white"/>
<path d="M58.0581 52.8609L46.0007 74.6651C45.8687 74.8957 45.8145 75.1626 45.8461 75.4265C45.8777 75.6903 45.9934 75.9369 46.176 76.1298C46.3587 76.3227 46.5986 76.4515 46.8602 76.4974C47.1218 76.5432 47.3911 76.5034 47.6284 76.3841L70.6581 61.3051C70.7453 61.251 70.8173 61.1756 70.8672 61.0858C70.9172 60.9961 70.9434 60.8951 70.9434 60.7924C70.9434 60.6898 70.9172 60.5888 70.8672 60.4991C70.8173 60.4093 70.7453 60.3339 70.6581 60.2798L58.0581 52.8609Z" fill="white"/>
<path d="M36.6275 51.1419H19.9581L34.5476 76.8365C34.7661 77.192 35.072 77.4855 35.4361 77.6892C35.8002 77.8928 36.2104 77.9998 36.6275 77.9998C37.0446 77.9998 37.4548 77.8928 37.8189 77.6892C38.183 77.4855 38.4889 77.192 38.7074 76.8365L53.2969 51.1419H36.6275Z" fill="url(#paint1_linear_40_22)"/>
<path d="M0.936603 55.6957L12.5117 48.6689L1.14761 30.0313C1.07126 29.9253 0.964006 29.8455 0.840541 29.8029C0.717076 29.7602 0.583447 29.7568 0.457986 29.7932C0.332524 29.8295 0.221364 29.9038 0.139755 30.0058C0.0581474 30.1078 0.0100803 30.2326 0.00214863 30.3631L0.00214863 55.183C0.000514984 55.2927 0.0287924 55.4007 0.0839291 55.4954C0.139065 55.5902 0.21898 55.6681 0.315079 55.7209C0.411178 55.7736 0.519819 55.7991 0.629331 55.7947C0.738841 55.7902 0.845077 55.756 0.936603 55.6957Z" fill="white"/>
<path d="M15.1954 52.8613L2.74616 60.1897C2.65892 60.2438 2.58694 60.3193 2.53701 60.409C2.48708 60.4987 2.46088 60.5997 2.46088 60.7024C2.46088 60.805 2.48708 60.906 2.53701 60.9957C2.58694 61.0855 2.65892 61.1609 2.74616 61.215L25.7758 76.294C26.0131 76.4134 26.2825 76.4531 26.5441 76.4073C26.8057 76.3615 27.0456 76.2326 27.2282 76.0397C27.4108 75.8468 27.5265 75.6002 27.5581 75.3364C27.5897 75.0726 27.5355 74.8056 27.4036 74.575L15.3462 52.7708L15.1954 52.8613Z" fill="white"/>
<path d="M3.13699 14.6506L34.1848 11.2428V1.23033C34.1889 1.02522 34.1406 0.822448 34.0446 0.641195C33.9485 0.459944 33.8078 0.306196 33.6358 0.194493C33.4638 0.0827913 33.2662 0.016819 33.0616 0.00282001C32.857 -0.011179 32.6522 0.0272598 32.4666 0.114492L2.77527 13.5046C2.63589 13.5623 2.52321 13.6703 2.45948 13.8071C2.39575 13.9439 2.3856 14.0996 2.43102 14.2435C2.47645 14.3874 2.57416 14.5091 2.70486 14.5844C2.83556 14.6598 2.98974 14.6834 3.13699 14.6506Z" fill="white"/>
<path d="M16.2799 45.3223L32.8589 16.3104L1.08761 19.688C0.88343 19.7082 0.687775 19.7801 0.519138 19.897C0.350506 20.0139 0.214481 20.172 0.123936 20.3562C0.03339 20.5404 -0.00868607 20.7446 0.00170517 20.9496C0.0120926 21.1546 0.0746002 21.3536 0.183304 21.5277L16.2799 45.3223Z" fill="url(#paint2_linear_40_22)"/>
<defs>
<linearGradient id="paint0_linear_40_22" x1="56.825" y1="45.3223" x2="56.825" y2="16.3104" gradientUnits="userSpaceOnUse">
<stop stop-color="#AFB0B1"/>
<stop offset="1" stop-color="#9B9C9E"/>
</linearGradient>
<linearGradient id="paint1_linear_40_22" x1="36.6275" y1="77.9998" x2="36.6275" y2="51.1419" gradientUnits="userSpaceOnUse">
<stop stop-color="#AFB0B1"/>
<stop offset="1" stop-color="#9B9C9E"/>
</linearGradient>
<linearGradient id="paint2_linear_40_22" x1="16.4295" y1="45.3223" x2="16.4295" y2="16.3104" gradientUnits="userSpaceOnUse">
<stop stop-color="#AFB0B1"/>
<stop offset="1" stop-color="#9B9C9E"/>
</linearGradient>
</defs>
</svg>
