<?xml version="1.0" encoding="UTF-8"?>
<svg xmlns="http://www.w3.org/2000/svg" xmlns:xlink="http://www.w3.org/1999/xlink" width="78px" height="78px" viewBox="0 0 78 78" version="1.1">
<g id="surface1">
<path style=" stroke:none;fill-rule:nonzero;fill:rgb(6.27451%,7.843137%,9.019608%);fill-opacity:1;" d="M 0 0 C 25.738281 0 51.480469 0 78 0 C 78 25.738281 78 51.480469 78 78 C 52.261719 78 26.519531 78 0 78 C 0 52.261719 0 26.519531 0 0 Z M 0 0 "/>
<path style=" stroke:none;fill-rule:nonzero;fill:rgb(61.960784%,62.352941%,63.137255%);fill-opacity:1;" d="M 29.25 46.3125 C 35.683594 46.3125 42.121094 46.3125 48.75 46.3125 C 47.875 48.941406 47.160156 50.804688 45.8125 53.125 C 45.488281 53.691406 45.160156 54.257812 44.824219 54.839844 C 44.484375 55.417969 44.148438 56 43.796875 56.59375 C 43.457031 57.191406 43.113281 57.785156 42.757812 58.394531 C 41.914062 59.855469 41.066406 61.308594 40.21875 62.765625 C 39.414062 62.765625 38.609375 62.765625 37.78125 62.765625 C 36.46875 60.484375 35.164062 58.195312 33.859375 55.910156 C 33.484375 55.261719 33.113281 54.613281 32.730469 53.945312 C 32.375 53.320312 32.019531 52.699219 31.652344 52.054688 C 31.324219 51.480469 30.996094 50.90625 30.65625 50.3125 C 29.859375 48.75 29.859375 48.75 29.25 46.3125 Z M 29.25 46.3125 "/>
<path style=" stroke:none;fill-rule:nonzero;fill:rgb(61.960784%,62.352941%,63.137255%);fill-opacity:1;" d="M 41.4375 24.984375 C 47.957031 25.429688 54.441406 26.105469 60.9375 26.8125 C 60.9375 29.585938 60.484375 30.207031 58.9375 32.421875 C 58.527344 33.019531 58.113281 33.613281 57.6875 34.230469 C 57.253906 34.847656 56.816406 35.46875 56.367188 36.105469 C 55.929688 36.734375 55.496094 37.363281 55.046875 38.007812 C 53.96875 39.5625 52.886719 41.109375 51.796875 42.65625 C 47.148438 38.152344 43.722656 30.988281 41.4375 24.984375 Z M 41.4375 24.984375 "/>
<path style=" stroke:none;fill-rule:nonzero;fill:rgb(61.960784%,62.352941%,63.137255%);fill-opacity:1;" d="M 36.5625 24.984375 C 35.695312 27.3125 34.617188 29.386719 33.359375 31.527344 C 32.785156 32.503906 32.785156 32.503906 32.203125 33.496094 C 31.808594 34.167969 31.410156 34.84375 31 35.535156 C 30.601562 36.21875 30.199219 36.902344 29.785156 37.605469 C 28.796875 39.289062 27.804688 40.972656 26.8125 42.65625 C 24.734375 40.6875 23.117188 38.777344 21.632812 36.335938 C 20.386719 34.304688 19.121094 32.359375 17.671875 30.46875 C 17.269531 29.867188 16.867188 29.261719 16.453125 28.640625 C 16.652344 28.039062 16.855469 27.433594 17.0625 26.8125 C 19.742188 26.503906 22.417969 26.203125 25.097656 25.898438 C 25.859375 25.8125 26.617188 25.722656 27.398438 25.632812 C 28.132812 25.550781 28.863281 25.46875 29.617188 25.382812 C 30.292969 25.308594 30.964844 25.230469 31.660156 25.152344 C 33.308594 25.003906 34.910156 24.953125 36.5625 24.984375 Z M 36.5625 24.984375 "/>
<path style=" stroke:none;fill-rule:nonzero;fill:rgb(95.686275%,95.686275%,95.686275%);fill-opacity:1;" d="M 26.8125 48.140625 C 28.167969 50.03125 29.210938 52.113281 30.316406 54.15625 C 30.792969 55.003906 30.792969 55.003906 31.277344 55.863281 C 31.71875 56.675781 31.71875 56.675781 32.171875 57.503906 C 32.582031 58.25 32.582031 58.25 33 59.011719 C 33.515625 60.328125 33.515625 60.328125 32.90625 62.15625 C 27.878906 59.304688 23.054688 56.273438 18.28125 53.015625 C 19.046875 50.722656 19.820312 50.425781 21.859375 49.207031 C 22.398438 48.878906 22.9375 48.546875 23.496094 48.207031 C 24.984375 47.53125 24.984375 47.53125 26.8125 48.140625 Z M 26.8125 48.140625 "/>
<path style=" stroke:none;fill-rule:nonzero;fill:rgb(96.078431%,96.078431%,96.078431%);fill-opacity:1;" d="M 51.796875 47.53125 C 53.832031 48.324219 55.632812 49.167969 57.472656 50.351562 C 57.898438 50.621094 58.320312 50.894531 58.757812 51.171875 C 59.234375 51.480469 59.234375 51.480469 59.71875 51.796875 C 59.039062 53.832031 58.804688 53.992188 57.066406 55.050781 C 56.648438 55.308594 56.230469 55.566406 55.796875 55.832031 C 55.359375 56.097656 54.917969 56.363281 54.460938 56.632812 C 54.035156 56.894531 53.609375 57.15625 53.171875 57.425781 C 50.507812 59.054688 47.8125 60.621094 45.09375 62.15625 C 45.09375 59.636719 45.367188 58.925781 46.558594 56.816406 C 47.015625 56 47.015625 56 47.476562 55.171875 C 47.796875 54.613281 48.117188 54.050781 48.445312 53.472656 C 48.925781 52.617188 48.925781 52.617188 49.414062 51.746094 C 50.203125 50.335938 51 48.933594 51.796875 47.53125 Z M 51.796875 47.53125 "/>
<path style=" stroke:none;fill-rule:nonzero;fill:rgb(93.72549%,93.72549%,93.72549%);fill-opacity:1;" d="M 40.21875 15.234375 C 42.984375 15.585938 45.179688 16.320312 47.699219 17.503906 C 48.402344 17.832031 49.105469 18.160156 49.828125 18.496094 C 50.554688 18.839844 51.277344 19.183594 52.023438 19.539062 C 52.773438 19.886719 53.519531 20.238281 54.265625 20.585938 C 56.085938 21.4375 57.902344 22.296875 59.71875 23.15625 C 59.71875 23.355469 59.71875 23.558594 59.71875 23.765625 C 53.121094 23.519531 46.707031 23.21875 40.21875 21.9375 C 40.21875 19.726562 40.21875 17.511719 40.21875 15.234375 Z M 40.21875 15.234375 "/>
<path style=" stroke:none;fill-rule:nonzero;fill:rgb(93.72549%,93.72549%,94.117647%);fill-opacity:1;" d="M 37.78125 15.234375 C 37.78125 17.445312 37.78125 19.660156 37.78125 21.9375 C 35.445312 22.246094 33.109375 22.550781 30.773438 22.851562 C 30.117188 22.9375 29.460938 23.027344 28.785156 23.117188 C 25.25 23.566406 21.84375 23.871094 18.28125 23.765625 C 21.226562 21.398438 24.617188 20.03125 28.03125 18.472656 C 29.03125 18.003906 29.03125 18.003906 30.050781 17.527344 C 30.691406 17.234375 31.332031 16.941406 31.992188 16.636719 C 32.578125 16.367188 33.160156 16.097656 33.761719 15.820312 C 35.34375 15.234375 35.34375 15.234375 37.78125 15.234375 Z M 37.78125 15.234375 "/>
<path style=" stroke:none;fill-rule:nonzero;fill:rgb(96.078431%,96.078431%,96.078431%);fill-opacity:1;" d="M 60.328125 33.515625 C 60.730469 33.515625 61.132812 33.515625 61.546875 33.515625 C 61.546875 38.742188 61.546875 43.972656 61.546875 49.359375 C 58.582031 48.171875 56.753906 46.96875 54.234375 45.09375 C 55.074219 42.214844 56.3125 39.777344 57.890625 37.25 C 58.109375 36.886719 58.324219 36.523438 58.546875 36.152344 C 59.105469 35.25 59.710938 34.378906 60.328125 33.515625 Z M 60.328125 33.515625 "/>
<path style=" stroke:none;fill-rule:nonzero;fill:rgb(94.901961%,95.294118%,95.294118%);fill-opacity:1;" d="M 16.453125 33.515625 C 16.855469 33.515625 17.257812 33.515625 17.671875 33.515625 C 18.902344 35.078125 19.859375 36.832031 20.871094 38.542969 C 21.167969 39.015625 21.460938 39.492188 21.765625 39.976562 C 22.039062 40.4375 22.3125 40.898438 22.59375 41.371094 C 22.847656 41.792969 23.101562 42.214844 23.363281 42.648438 C 23.765625 43.875 23.765625 43.875 23.300781 45.195312 C 22.394531 46.539062 21.5 47.160156 20.109375 47.988281 C 19.683594 48.25 19.253906 48.511719 18.8125 48.777344 C 17.671875 49.359375 17.671875 49.359375 16.453125 49.359375 C 16.453125 44.132812 16.453125 38.902344 16.453125 33.515625 Z M 16.453125 33.515625 "/>
<path style=" stroke:none;fill-rule:nonzero;fill:rgb(9.411765%,10.980392%,12.156863%);fill-opacity:1;" d="M 55.71875 23.117188 C 56.386719 23.121094 56.386719 23.121094 57.070312 23.125 C 58.15625 23.132812 59.242188 23.144531 60.328125 23.15625 C 60.328125 23.558594 60.328125 23.960938 60.328125 24.375 C 59.324219 24.574219 58.316406 24.777344 57.28125 24.984375 C 57.28125 25.183594 57.28125 25.386719 57.28125 25.59375 C 52.90625 26.027344 48.828125 26.359375 44.484375 25.59375 C 45.085938 25.394531 45.691406 25.191406 46.3125 24.984375 C 46.3125 24.582031 46.3125 24.179688 46.3125 23.765625 C 49.480469 23.238281 52.507812 23.078125 55.71875 23.117188 Z M 55.71875 23.117188 "/>
<path style=" stroke:none;fill-rule:nonzero;fill:rgb(12.941176%,14.509804%,15.686275%);fill-opacity:1;" d="M 17.671875 23.15625 C 20.6875 23.15625 23.703125 23.15625 26.8125 23.15625 C 26.8125 23.757812 26.8125 24.363281 26.8125 24.984375 C 27.617188 25.386719 28.421875 25.789062 29.25 26.203125 C 27.890625 26.132812 26.53125 26.054688 25.175781 25.976562 C 24.417969 25.933594 23.660156 25.890625 22.882812 25.847656 C 20.90625 25.617188 19.460938 25.214844 17.671875 24.375 C 17.671875 23.972656 17.671875 23.570312 17.671875 23.15625 Z M 17.671875 23.15625 "/>
<path style=" stroke:none;fill-rule:nonzero;fill:rgb(9.803922%,11.372549%,12.54902%);fill-opacity:1;" d="M 56.0625 35.34375 C 56.664062 35.542969 57.269531 35.746094 57.890625 35.953125 C 58.089844 36.554688 58.292969 37.160156 58.5 37.78125 C 56.703125 41.234375 56.703125 41.234375 54.386719 41.96875 C 53.933594 41.996094 53.480469 42.019531 53.015625 42.046875 C 53.015625 39.96875 53.421875 39.367188 54.539062 37.667969 C 54.820312 37.230469 55.105469 36.796875 55.394531 36.347656 C 55.617188 36.015625 55.835938 35.683594 56.0625 35.34375 Z M 56.0625 35.34375 "/>
<path style=" stroke:none;fill-rule:nonzero;fill:rgb(13.333333%,14.509804%,15.686275%);fill-opacity:1;" d="M 59.71875 23.15625 C 59.917969 23.558594 60.121094 23.960938 60.328125 24.375 C 59.324219 24.574219 58.316406 24.777344 57.28125 24.984375 C 57.28125 25.183594 57.28125 25.386719 57.28125 25.59375 C 53.359375 25.894531 53.359375 25.894531 49.359375 26.203125 C 51.882812 24.3125 52.890625 24.042969 55.910156 23.652344 C 56.625 23.554688 57.335938 23.457031 58.070312 23.359375 C 58.613281 23.292969 59.160156 23.226562 59.71875 23.15625 Z M 59.71875 23.15625 "/>
</g>
</svg>
